<?xml version="1.0" encoding="UTF-8"?>
<svg width="40px" height="33px" viewBox="0 0 40 33" version="1.1" xmlns="http://www.w3.org/2000/svg" xmlns:xlink="http://www.w3.org/1999/xlink">
    <!-- Generator: Sketch 44 (41411) - http://www.bohemiancoding.com/sketch -->
    <title>toyota</title>
    <desc>Created with Sketch.</desc>
    <defs>
        <linearGradient x1="49.9908813%" y1="92.5193792%" x2="49.9908813%" y2="16.4701342%" id="linearGradient-1">
            <stop stop-color="#DADADA" offset="0%"></stop>
            <stop stop-color="#F6F6F6" offset="15.75%"></stop>
            <stop stop-color="#F4F4F4" offset="17.53%"></stop>
            <stop stop-color="#EEEEEE" offset="26.67%"></stop>
            <stop stop-color="#EDEDED" offset="44%"></stop>
            <stop stop-color="#DCDCDC" offset="53.76%"></stop>
            <stop stop-color="#ADADAD" offset="74.29%"></stop>
            <stop stop-color="#646363" offset="100%"></stop>
        </linearGradient>
        <linearGradient x1="92.7921875%" y1="110.065282%" x2="12.678125%" y2="33.4661721%" id="linearGradient-2">
            <stop stop-color="#EDEDED" offset="0%"></stop>
            <stop stop-color="#EDEDED" offset="44%"></stop>
            <stop stop-color="#DCDCDC" offset="53.76%"></stop>
            <stop stop-color="#ADADAD" offset="74.29%"></stop>
            <stop stop-color="#646363" offset="100%"></stop>
        </linearGradient>
        <linearGradient x1="97.529064%" y1="60.4906526%" x2="-12.0598522%" y2="15.1853616%" id="linearGradient-3">
            <stop stop-color="#EDEDED" offset="0%"></stop>
            <stop stop-color="#EDEDED" offset="44%"></stop>
            <stop stop-color="#DCDCDC" offset="53.76%"></stop>
            <stop stop-color="#ADADAD" offset="74.29%"></stop>
            <stop stop-color="#646363" offset="100%"></stop>
        </linearGradient>
        <linearGradient x1="50.0509147%" y1="122.535146%" x2="50.0509147%" y2="27.155534%" id="linearGradient-4">
            <stop stop-color="#EDEDED" offset="0%"></stop>
            <stop stop-color="#EDEDED" offset="44%"></stop>
            <stop stop-color="#DCDCDC" offset="53.76%"></stop>
            <stop stop-color="#ADADAD" offset="74.29%"></stop>
            <stop stop-color="#646363" offset="100%"></stop>
        </linearGradient>
        <linearGradient x1="50.0105571%" y1="0.0170226131%" x2="50.0105571%" y2="99.9646985%" id="linearGradient-5">
            <stop stop-color="#D0D0D0" offset="0%"></stop>
            <stop stop-color="#DFDFDF" offset="5.625473%"></stop>
            <stop stop-color="#EDEDED" offset="12%"></stop>
            <stop stop-color="#F0F0F0" offset="12.68%"></stop>
            <stop stop-color="#F5F5F5" offset="14.88%"></stop>
            <stop stop-color="#F6F6F6" offset="21%"></stop>
            <stop stop-color="#F6F6F6" offset="54.5%"></stop>
            <stop stop-color="#E3E3E3" offset="58.1%"></stop>
            <stop stop-color="#C0C0BF" offset="65.33%"></stop>
            <stop stop-color="#A1A0A0" offset="72.57%"></stop>
            <stop stop-color="#878787" offset="79.72%"></stop>
            <stop stop-color="#747373" offset="86.74%"></stop>
            <stop stop-color="#686767" offset="93.57%"></stop>
            <stop stop-color="#646363" offset="100%"></stop>
        </linearGradient>
        <linearGradient x1="50.1313953%" y1="-7.26055635%" x2="50.1313953%" y2="106.230029%" id="linearGradient-6">
            <stop stop-color="#D0D0D0" offset="0%"></stop>
            <stop stop-color="#DFDFDF" offset="5.625473%"></stop>
            <stop stop-color="#EDEDED" offset="12%"></stop>
            <stop stop-color="#F0F0F0" offset="12.68%"></stop>
            <stop stop-color="#F5F5F5" offset="14.88%"></stop>
            <stop stop-color="#F6F6F6" offset="21%"></stop>
            <stop stop-color="#F6F6F6" offset="54.5%"></stop>
            <stop stop-color="#E3E3E3" offset="58.1%"></stop>
            <stop stop-color="#C0C0BF" offset="65.33%"></stop>
            <stop stop-color="#A1A0A0" offset="72.57%"></stop>
            <stop stop-color="#878787" offset="79.72%"></stop>
            <stop stop-color="#747373" offset="86.74%"></stop>
            <stop stop-color="#686767" offset="93.57%"></stop>
            <stop stop-color="#646363" offset="100%"></stop>
        </linearGradient>
        <linearGradient x1="49.9915042%" y1="-2.04526462%" x2="49.9915042%" y2="219.568245%" id="linearGradient-7">
            <stop stop-color="#D0D0D0" offset="0%"></stop>
            <stop stop-color="#DFDFDF" offset="5.625473%"></stop>
            <stop stop-color="#EDEDED" offset="12%"></stop>
            <stop stop-color="#F0F0F0" offset="12.68%"></stop>
            <stop stop-color="#F5F5F5" offset="14.88%"></stop>
            <stop stop-color="#F6F6F6" offset="21%"></stop>
            <stop stop-color="#F6F6F6" offset="54.5%"></stop>
            <stop stop-color="#E3E3E3" offset="58.1%"></stop>
            <stop stop-color="#C0C0BF" offset="65.33%"></stop>
            <stop stop-color="#A1A0A0" offset="72.57%"></stop>
            <stop stop-color="#878787" offset="79.72%"></stop>
            <stop stop-color="#747373" offset="86.74%"></stop>
            <stop stop-color="#686767" offset="93.57%"></stop>
            <stop stop-color="#646363" offset="100%"></stop>
        </linearGradient>
        <linearGradient x1="49.9893794%" y1="-13.0153266%" x2="49.9893794%" y2="100.93191%" id="linearGradient-8">
            <stop stop-color="#EDEDED" offset="0.5618%"></stop>
            <stop stop-color="#706F6F" offset="100%"></stop>
        </linearGradient>
        <linearGradient x1="49.9557325%" y1="-20.5549495%" x2="49.9557325%" y2="136.815758%" id="linearGradient-9">
            <stop stop-color="#EDEDED" offset="0%"></stop>
            <stop stop-color="#EDEDED" offset="44%"></stop>
            <stop stop-color="#DCDCDC" offset="53.76%"></stop>
            <stop stop-color="#ADADAD" offset="74.29%"></stop>
            <stop stop-color="#646363" offset="100%"></stop>
        </linearGradient>
        <linearGradient x1="49.9047771%" y1="-20.5549495%" x2="49.9047771%" y2="136.815758%" id="linearGradient-10">
            <stop stop-color="#EDEDED" offset="0%"></stop>
            <stop stop-color="#EDEDED" offset="44%"></stop>
            <stop stop-color="#DCDCDC" offset="53.76%"></stop>
            <stop stop-color="#ADADAD" offset="74.29%"></stop>
            <stop stop-color="#646363" offset="100%"></stop>
        </linearGradient>
        <linearGradient x1="49.9594595%" y1="-89.8675505%" x2="49.9594595%" y2="72.7920455%" id="linearGradient-11">
            <stop stop-color="#EDEDED" offset="0%"></stop>
            <stop stop-color="#EDEDED" offset="44%"></stop>
            <stop stop-color="#DCDCDC" offset="53.76%"></stop>
            <stop stop-color="#ADADAD" offset="74.29%"></stop>
            <stop stop-color="#646363" offset="100%"></stop>
        </linearGradient>
        <linearGradient x1="49.6147147%" y1="-89.8675505%" x2="49.6147147%" y2="72.7920455%" id="linearGradient-12">
            <stop stop-color="#EDEDED" offset="0%"></stop>
            <stop stop-color="#EDEDED" offset="44%"></stop>
            <stop stop-color="#DCDCDC" offset="53.76%"></stop>
            <stop stop-color="#ADADAD" offset="74.29%"></stop>
            <stop stop-color="#646363" offset="100%"></stop>
        </linearGradient>
    </defs>
    <g id="Symbols" stroke="none" stroke-width="1" fill="none" fill-rule="evenodd">
        <g id="Header" transform="translate(-40.000000, -18.000000)" fill-rule="nonzero">
            <g id="toyota" transform="translate(40.000000, 18.000000)">
                <g id="Group" transform="translate(0.000000, 25.334726)" fill="#E4032E">
                    <path d="M19.943662,3.50788516 C19.943662,1.57298025 21.5211268,0 23.4929577,0 C25.4225352,0 27.0140845,1.57298025 27.0422535,3.50788516 C27,5.4288699 25.4225352,6.98792997 23.4929577,7.01577033 C21.5211268,7.00185015 19.9295775,5.4288699 19.943662,3.50788516 L19.943662,3.50788516 Z M23.4929577,5.73511384 C24.5633803,5.72119366 25.4507042,4.73286094 25.4507042,3.52180534 C25.4366197,2.28290939 24.5492958,1.29457667 23.4929577,1.30849685 C22.3802817,1.29457667 21.4929577,2.29682957 21.5352113,3.52180534 C21.4929577,4.71894076 22.3802817,5.72119366 23.4929577,5.73511384 L23.4929577,5.73511384 Z" id="Shape"></path>
                    <polyline id="Shape" points="31.0704225 1.475539 31.0704225 6.834808 29.5633803 6.834808 29.5633803 1.475539 27.4225352 1.475539 27.4225352 0.278403585 33.1267606 0.278403585 33.1267606 1.475539 31.0704225 1.475539"></polyline>
                    <path d="M34.9014085,5.359269 L34.9014085,5.359269 L34.3380282,6.834808 L32.5633803,6.834808 L35.3661972,0.278403585 L37.2394366,0.278403585 L39.9577465,6.834808 L38.1690141,6.834808 L37.6056338,5.359269 L34.9014085,5.359269 L34.9014085,5.359269 Z M36.2957746,4.24565466 L37.2253521,4.24565466 L36.2957746,1.83746366 L35.3661972,4.24565466 L36.2957746,4.24565466 L36.2957746,4.24565466 Z" id="Shape"></path>
                    <polyline id="Shape" points="3.57746479 1.475539 3.57746479 6.834808 2.08450704 6.834808 2.08450704 1.475539 0.0281690141 1.475539 0.0281690141 0.278403585 5.63380282 0.278403585 5.63380282 1.475539 3.57746479 1.475539"></polyline>
                    <path d="M6.01408451,3.50788516 C6.01408451,1.57298025 7.6056338,0 9.56338028,0 C11.5070423,0 13.084507,1.57298025 13.1126761,3.50788516 C13.084507,5.4288699 11.5070423,6.98792997 9.56338028,7.01577033 C7.5915493,7.00185015 6.01408451,5.4288699 6.01408451,3.50788516 L6.01408451,3.50788516 Z M9.56338028,5.73511384 C10.6478873,5.72119366 11.5211268,4.73286094 11.5211268,3.52180534 C11.5211268,2.28290939 10.6338028,1.29457667 9.56338028,1.30849685 C8.46478873,1.29457667 7.57746479,2.29682957 7.6056338,3.52180534 C7.57746479,4.71894076 8.45070423,5.72119366 9.56338028,5.73511384 L9.56338028,5.73511384 Z" id="Shape"></path>
                    <polyline id="Shape" points="16.4788732 6.834808 17.2253521 6.834808 17.2253521 4.34309592 19.8450704 0.278403585 18.1690141 0.278403585 16.4788732 3.04851925 14.8873239 0.278403585 13.1126761 0.278403585 15.7323944 4.34309592 15.7323944 6.834808 16.4788732 6.834808"></polyline>
                </g>
                <path d="M1.42253521,11.1779039 C1.42253521,17.3306231 9.57746479,22.3418877 19.5915493,22.3418877 C29.6056338,22.3418877 37.7605634,17.3306231 37.7605634,11.1779039 C37.7605634,5.0251847 29.6056338,0.0139201792 19.5915493,0.0139201792 C9.57746479,0.0139201792 1.42253521,5.0251847 1.42253521,11.1779039 Z M1.6056338,11.1779039 C1.6056338,5.12262595 9.67605634,0.194882509 19.5915493,0.194882509 C29.5070423,0.194882509 37.5774648,5.12262595 37.5774648,11.1779039 C37.5774648,17.2331819 29.5070423,22.1609253 19.5915493,22.1609253 C9.66197183,22.1609253 1.6056338,17.2331819 1.6056338,11.1779039 Z" id="Shape" fill="#000000"></path>
                <path d="M17.8591549,2.0741067 C13.7042254,2.32466993 10.5774648,3.42436409 10.084507,4.81638201 C10.0422535,4.9555838 10.0140845,5.08086542 10.0140845,5.22006721 C10.0140845,5.44279008 10.0704225,5.65159277 10.1971831,5.86039545 C10.7605634,6.82088782 12.5633803,7.61433804 15.1408451,8.04586359 L15.2253521,8.05978377 L15.2394366,7.9762627 C15.6760563,5.31750846 16.6619718,3.22948158 17.915493,2.22722868 L18.1267606,2.06018653 L17.8591549,2.0741067 Z M10.3521127,5.77687438 C10.2394366,5.59591205 10.1830986,5.41494972 10.1830986,5.22006721 C10.1830986,5.10870578 10.1971831,4.99734434 10.2394366,4.87206273 L10.2394366,4.87206273 C10.6901408,3.59140624 13.7183099,2.53347262 17.6197183,2.26898921 C16.4366197,3.32692283 15.5211268,5.34534882 15.084507,7.86490126 C12.6478873,7.43337571 10.8732394,6.66776585 10.3521127,5.77687438 Z" id="Shape" fill="#000000"></path>
                <path d="M17.2535211,8.19898556 L17.2394366,8.29642682 L17.3380282,8.310347 C18.0704225,8.36602771 18.8309859,8.39386807 19.5915493,8.39386807 C20.3521127,8.39386807 21.1126761,8.36602771 21.8450704,8.310347 L21.943662,8.29642682 L21.9295775,8.19898556 C21.5352113,5.98567707 20.6338028,4.59365914 19.6056338,4.59365914 C18.5492958,4.60757932 17.6619718,5.98567707 17.2535211,8.19898556 Z M19.5915493,4.77462147 C20.5211268,4.77462147 21.3380282,6.05527796 21.7323944,8.12938467 C21.0422535,8.18506538 20.3239437,8.21290574 19.5915493,8.21290574 C18.8732394,8.21290574 18.1549296,8.18506538 17.4507042,8.12938467 C17.8450704,6.06919814 18.6619718,4.77462147 19.5915493,4.77462147 Z" id="Shape" fill="#000000"></path>
                <path d="M21.2535211,2.22722868 C22.5070423,3.22948158 23.4929577,5.31750846 23.9295775,7.9762627 L23.943662,8.05978377 L24.028169,8.04586359 C26.6056338,7.61433804 28.4084507,6.82088782 28.971831,5.86039545 C29.1690141,5.51239097 29.2112676,5.16438649 29.084507,4.81638201 C28.5915493,3.42436409 25.4647887,2.32466993 21.3098592,2.0741067 L21.028169,2.06018653 L21.2535211,2.22722868 Z M21.5492958,2.26898921 C25.4507042,2.5473928 28.4647887,3.60532642 28.9295775,4.87206273 C28.971831,4.98342416 28.9859155,5.0947856 28.9859155,5.22006721 C28.9859155,5.40102954 28.9295775,5.59591205 28.8169014,5.77687438 C28.2957746,6.66776585 26.5211268,7.43337571 24.0704225,7.86490126 C23.6478873,5.34534882 22.7323944,3.32692283 21.5492958,2.26898921 Z" id="Shape" fill="#000000"></path>
                <path d="M7.30985915,5.99959725 C5.42253521,7.55865732 4.42253521,9.41004116 4.42253521,11.3449461 C4.42253521,15.9386052 10.1408451,19.8223352 17.7183099,20.3791424 L17.9859155,20.3930626 L17.7887324,20.2260204 C16.0704225,18.7644016 15,15.3400375 15,11.2753452 L15.0140845,10.481895 L14.943662,10.4679748 C10.7605634,9.73020528 7.90140845,8.03194341 7.46478873,6.04135778 L7.43661972,5.90215599 L7.30985915,5.99959725 Z M4.6056338,11.3449461 C4.6056338,9.49356223 5.54929577,7.72569947 7.32394366,6.22232011 C7.87323944,8.19898556 10.7183099,9.88332725 14.8309859,10.6210967 C14.8309859,10.7463784 14.8169014,11.2753452 14.8169014,11.2753452 C14.8169014,15.2425963 15.8309859,18.6112796 17.4788732,20.1842599 C10.1267606,19.5578518 4.6056338,15.7854832 4.6056338,11.3449461 Z" id="Shape" fill="#000000"></path>
                <path d="M17.028169,10.8438196 L17.028169,10.9412609 C17.028169,14.5048268 18.1549296,17.2888626 19.5915493,17.2888626 C21.028169,17.2888626 22.1549296,14.5048268 22.1549296,10.9412609 L22.1549296,10.7463784 L22.056338,10.7602985 C21.2535211,10.8298994 20.4225352,10.87166 19.5915493,10.87166 C18.7605634,10.87166 17.9295775,10.8298994 17.1267606,10.7602985 L17.028169,10.7463784 L17.028169,10.8438196 Z M17.2112676,10.9412609 C17.2112676,10.9412609 17.2112676,10.9273407 17.2112676,10.9412609 C17.9859155,10.9969416 18.7887324,11.0387021 19.5915493,11.0387021 C20.3943662,11.0387021 21.1971831,11.0108618 21.971831,10.9412609 L21.971831,10.9551811 C21.971831,14.4213057 20.9295775,17.1357406 19.5915493,17.1357406 C18.2535211,17.1218204 17.2112676,14.4073855 17.2112676,10.9412609 Z" id="Shape" fill="#000000"></path>
                <path d="M31.7183099,6.04135778 C31.2816901,8.03194341 28.4225352,9.7162851 24.2394366,10.4679748 L24.1690141,10.481895 L24.1830986,11.2753452 C24.1830986,15.3400375 23.1126761,18.7644016 21.3943662,20.2260204 L21.1971831,20.3930626 L21.4647887,20.3791424 C29.0422535,19.8223352 34.7605634,15.9386052 34.7605634,11.3449461 C34.7605634,9.41004116 33.7605634,7.55865732 31.8732394,5.99959725 L31.7605634,5.90215599 L31.7183099,6.04135778 Z M31.8591549,6.22232011 C33.6338028,7.72569947 34.5774648,9.49356223 34.5774648,11.3449461 C34.5774648,15.7994034 29.056338,19.5578518 21.7042254,20.1842599 C23.3521127,18.6112796 24.3661972,15.2425963 24.3661972,11.2753452 C24.3661972,11.2753452 24.3521127,10.7463784 24.3521127,10.6210967 C28.4647887,9.88332725 31.3098592,8.19898556 31.8591549,6.22232011 Z" id="Shape" fill="#000000"></path>
                <path d="M31.7323944,4.56581879 C31.7605634,4.63541968 31.7887324,4.70502058 31.8028169,4.78854165 C31.915493,5.20614703 31.8873239,5.60983223 31.7464789,6.01351743 C33.5774648,7.5029766 34.6619718,9.35436044 34.6619718,11.3449461 C34.6619718,16.3283702 27.915493,20.3652222 19.5915493,20.3652222 C11.2676056,20.3652222 4.52112676,16.3283702 4.52112676,11.3449461 C4.52112676,9.35436044 5.6056338,7.5029766 7.43661972,6.01351743 C7.29577465,5.60983223 7.28169014,5.20614703 7.38028169,4.78854165 C7.3943662,4.71894076 7.43661972,4.63541968 7.46478873,4.55189861 C4.97183099,6.30584119 3.45070423,8.61659094 3.45070423,11.1500636 C3.45070423,16.6624545 10.6760563,21.1447522 19.5915493,21.1447522 C28.5070423,21.1447522 35.7323944,16.6763747 35.7323944,11.1500636 C35.7323944,8.63051112 34.2253521,6.31976137 31.7323944,4.56581879 Z" id="Shape" fill="url(#linearGradient-1)"></path>
                <path d="M17.3380282,8.22682592 L16.8732394,8.56091022 C17.2535211,5.6933533 18.3239437,3.86980982 19.5774648,3.86980982 C20.8309859,3.86980982 21.9014085,5.70727348 22.2816901,8.56091022 L21.8169014,8.22682592 L21.8169014,8.22682592 C21.4225352,6.05527796 20.5633803,4.70502058 19.5774648,4.70502058 C18.5915493,4.6911004 17.7323944,6.05527796 17.3380282,8.22682592 L17.3380282,8.22682592 Z" id="Shape" fill="url(#linearGradient-2)"></path>
                <path d="M22.4366197,10.1617308 L22.056338,10.8438196 L22.056338,10.8438196 L22.056338,10.9412609 C22.056338,14.5048268 20.943662,17.2053415 19.5915493,17.2053415 C18.2253521,17.2053415 17.1267606,14.5048268 17.1267606,10.9412609 L17.1267606,10.8298994 L16.7464789,10.175651 C16.7323944,10.4262142 16.7323944,10.6906976 16.7323944,10.9551811 C16.7323944,14.992033 18.0140845,18.0544725 19.5915493,18.0544725 C21.1690141,18.0544725 22.4507042,14.992033 22.4507042,10.9551811 C22.4507042,10.6767775 22.4507042,10.4122941 22.4366197,10.1617308 Z" id="Shape" fill="url(#linearGradient-3)"></path>
                <path d="M21.8309859,8.22682592 C21.1126761,8.28250664 20.3661972,8.310347 19.5915493,8.310347 C18.8169014,8.310347 18.056338,8.28250664 17.3521127,8.22682592 L17.3521127,8.22682592 L16.8873239,8.56091022 C17.7464789,8.63051112 18.6478873,8.67227166 19.5915493,8.67227166 C20.5352113,8.67227166 21.4366197,8.63051112 22.2957746,8.56091022 L21.8309859,8.22682592 L21.8309859,8.22682592 Z M30.0704225,4.71894076 C29.5070423,2.86755692 24.8309859,1.50337936 19.5774648,1.50337936 C14.3239437,1.50337936 9.66197183,2.86755692 9.08450704,4.71894076 C8.5915493,6.31976137 11.2816901,7.80922055 15.5070423,8.39386807 L15.1408451,7.94842234 L15.1408451,7.94842234 C11.7183099,7.37769499 9.67605634,6.13879904 10.1408451,4.83030219 C10.7042254,3.24340176 14.8450704,2.08802688 19.5633803,2.08802688 C24.2816901,2.08802688 28.4084507,3.24340176 28.9859155,4.83030219 C29.4507042,6.13879904 27.4225352,7.36377481 23.9859155,7.94842234 L23.9859155,7.94842234 L23.6197183,8.39386807 C27.8873239,7.80922055 30.5633803,6.33368155 30.0704225,4.71894076 Z" id="Shape" fill="url(#linearGradient-4)"></path>
                <path d="M31.7464789,6.01351743 C32.4507042,6.58424477 33.0422535,7.21065284 33.4929577,7.86490126 C33.3239437,6.79304746 32.9014085,5.80471474 32.2535211,4.96950398 C32.084507,4.83030219 31.9014085,4.70502058 31.7183099,4.56581879 C31.7464789,4.63541968 31.7746479,4.70502058 31.7887324,4.78854165 C31.915493,5.20614703 31.8873239,5.60983223 31.7464789,6.01351743 Z" id="Shape" fill="#3C3C3B"></path>
                <path d="M7.42253521,6.01351743 C7.28169014,5.60983223 7.26760563,5.20614703 7.36619718,4.78854165 C7.38028169,4.71894076 7.42253521,4.63541968 7.45070423,4.55189861 C7.25352113,4.6911004 7.07042254,4.83030219 6.90140845,4.96950398 C6.26760563,5.80471474 5.83098592,6.79304746 5.66197183,7.86490126 C6.14084507,7.21065284 6.73239437,6.58424477 7.42253521,6.01351743 Z" id="Shape" fill="#3C3C3B"></path>
                <path d="M1.50704225,11.1779039 C1.50704225,5.06694524 9.6056338,0.0974412546 19.5915493,0.0974412546 C29.5774648,0.0974412546 37.6619718,5.05302506 37.6619718,11.1779039 C37.6619718,17.2888626 29.5633803,22.2583666 19.5915493,22.2583666 C9.6056338,22.2444464 1.50704225,17.2888626 1.50704225,11.1779039 Z M19.5915493,21.1308321 C28.5070423,21.1308321 35.7323944,16.6624545 35.7323944,11.1361434 C35.7323944,5.62375241 28.5070423,1.1414547 19.5915493,1.1414547 C10.6760563,1.1414547 3.45070423,5.60983223 3.45070423,11.1361434 C3.45070423,16.6624545 10.6760563,21.1308321 19.5915493,21.1308321 Z" id="Shape" fill="url(#linearGradient-5)"></path>
                <path d="M3.33802817,11.1500636 C3.33802817,16.7181352 10.6338028,21.2421935 19.5915493,21.2421935 C28.5492958,21.2421935 35.8450704,16.7181352 35.8450704,11.1500636 C35.8450704,5.58199187 28.5633803,1.05793362 19.5915493,1.05793362 C10.6338028,1.05793362 3.33802817,5.58199187 3.33802817,11.1500636 Z M3.54929577,11.1500636 C3.54929577,5.6933533 10.7464789,1.26673631 19.5915493,1.26673631 C28.4366197,1.26673631 35.6338028,5.70727348 35.6338028,11.1500636 C35.6338028,16.6067738 28.4366197,21.0333908 19.5915493,21.0333908 C10.7464789,21.0333908 3.54929577,16.5928536 3.54929577,11.1500636 Z" id="Shape" fill="#FFFFFF"></path>
                <path d="M15.3380282,11.2753452 C15.3380282,5.94391653 17.2394366,1.51729954 19.5774648,1.51729954 C21.915493,1.51729954 23.8169014,5.94391653 23.8169014,11.2753452 C23.8169014,16.6624545 21.915493,21.0333908 19.5774648,21.0333908 C17.2394366,21.0333908 15.3380282,16.6624545 15.3380282,11.2753452 Z M19.5915493,18.0405523 C21.1690141,18.0405523 22.4507042,14.9781128 22.4507042,10.9412609 C22.4507042,6.75128692 21.1690141,3.86980982 19.5915493,3.86980982 C18.0140845,3.86980982 16.7323944,6.75128692 16.7323944,10.9412609 C16.7323944,14.9781128 18.0140845,18.0405523 19.5915493,18.0405523 Z" id="Shape" fill="url(#linearGradient-6)"></path>
                <path d="M7.38028169,4.78854165 C7.84507042,2.96499818 13.4788732,0.306243943 19.5915493,0.306243943 C25.7042254,0.306243943 31.1408451,2.19938832 31.8028169,4.78854165 C32.5352113,7.68393893 27.1126761,10.3009326 19.5915493,10.3009326 C12.0704225,10.3009326 6.63380282,7.68393893 7.38028169,4.78854165 Z M19.5915493,1.51729954 C14.3380282,1.51729954 9.67605634,2.8814771 9.09859155,4.73286094 C8.46478873,6.80696764 13.1267606,8.68619184 19.5915493,8.68619184 C26.056338,8.68619184 30.7183099,6.80696764 30.084507,4.73286094 C29.5070423,2.86755692 24.8309859,1.51729954 19.5915493,1.51729954 Z" id="Shape" fill="url(#linearGradient-7)"></path>
                <path d="M16.7323944,10.1617308 L16.7323944,10.1617308 L17.1267606,10.8438196 C17.915493,10.9134205 18.7323944,10.9551811 19.5915493,10.9551811 C20.4507042,10.9551811 21.2676056,10.9134205 22.056338,10.8438196 L22.4366197,10.175651 L22.4366197,10.175651 C21.5352113,10.2591721 20.5774648,10.3009326 19.5915493,10.3009326 C18.5915493,10.3009326 17.6478873,10.2452519 16.7323944,10.1617308 Z M31.8732394,5.41494972 C31.7746479,7.48905642 28.5633803,9.3125999 23.8028169,10.0086089 L23.8028169,10.0086089 L24.2676056,10.5514959 C28.915493,9.73020528 31.971831,7.69785911 31.8732394,5.41494972 Z M7.30985915,5.41494972 C7.1971831,7.69785911 10.2535211,9.73020528 14.915493,10.5514959 L15.3802817,10.0086089 L15.3802817,10.0086089 C10.6197183,9.3125999 7.4084507,7.47513624 7.30985915,5.41494972 Z" id="Shape" fill="url(#linearGradient-8)"></path>
                <path d="M23.6478873,8.40778825 L23.6478873,8.40778825 L24.0140845,7.96234252 C23.3802817,4.10645287 21.6338028,1.51729954 19.5915493,1.51729954 C21.4929577,1.51729954 23.1126761,4.44053717 23.6478873,8.40778825 Z" id="Shape" fill="url(#linearGradient-9)"></path>
                <path d="M15.5352113,8.40778825 C16.0704225,4.44053717 17.6901408,1.51729954 19.5915493,1.51729954 C17.5492958,1.51729954 15.8028169,4.10645287 15.1690141,7.96234252 L15.5352113,8.40778825 L15.5352113,8.40778825 Z" id="Shape" fill="url(#linearGradient-10)"></path>
                <path d="M15.3380282,11.2753452 C15.3380282,10.8438196 15.3521127,10.4262142 15.3802817,10.0086089 L15.3802817,10.0086089 L14.915493,10.5514959 C14.9014085,10.7881389 14.9014085,11.0247819 14.9014085,11.2753452 C14.9014085,16.9826187 16.9577465,21.0333908 19.5915493,21.0333908 C17.2394366,21.0333908 15.3380282,16.6624545 15.3380282,11.2753452 Z" id="Shape" fill="url(#linearGradient-11)"></path>
                <path d="M24.2676056,10.5514959 L23.8028169,10.0086089 L23.8028169,10.0086089 C23.8309859,10.4262142 23.8450704,10.8438196 23.8450704,11.2753452 C23.8450704,16.6624545 21.943662,21.0333908 19.6056338,21.0333908 C22.2394366,21.0333908 24.2957746,16.9826187 24.2957746,11.2753452 C24.2816901,11.0247819 24.2676056,10.7881389 24.2676056,10.5514959 Z" id="Shape" fill="url(#linearGradient-12)"></path>
            </g>
        </g>
    </g>
</svg>